<?xml version="1.0" encoding="utf-8"?>
<!-- Generator: Adobe Illustrator 27.4.0, SVG Export Plug-In . SVG Version: 6.00 Build 0)  -->
<svg version="1.1" id="Layer_1" xmlns="http://www.w3.org/2000/svg" xmlns:xlink="http://www.w3.org/1999/xlink" x="0px" y="0px"
	 viewBox="0 0 1425.54 1425.54" style="enable-background:new 0 0 1425.54 1425.54;" xml:space="preserve">
<style type="text/css">
	.st0{fill:#E52823;}
	.st1{fill:#FFFFFF;}
</style>
<rect x="-1.9" class="st0" width="1425.54" height="1425.54"/>
<g>
	<g>
		<g>
			<path class="st1" d="M690.9,582.42c-55.51-67.59-164.26-121.73-285.67-121.73c-76.29,0-147.58,21.38-208.23,58.46l25.74,35.65
				c53.37-31.93,115.78-50.32,182.49-50.32c93.89,0,179.27,36.39,225.07,77.94H690.9z"/>
		</g>
		<path class="st1" d="M865.57,840.06c46.91,44.34,133.76,82.12,229.46,82.12c69.2,0,133.74-19.81,188.41-53.96l23.98,36.62
			c-61.55,38.67-134.34,61.13-212.39,61.13c-123.03,0-233.03-55.59-289.32-125.91H865.57z"/>
		<path class="st1" d="M73.75,660.41v30.09h51.36v39.66H73.75v70.71H26.94V620.75h103.43v39.66H73.75z"/>
		<path class="st1" d="M195.29,761.21h56.14v39.66H148.46V620.75h46.82V761.21z"/>
		<path class="st1" d="M442.61,707.47c0,58.28-41.81,99.38-99.61,99.38c-57.81,0-99.62-41.1-99.62-99.38
			c0-54.47,47.78-92.69,99.62-92.69C394.84,614.78,442.61,652.99,442.61,707.47z M292.11,707.7c0,31.07,22.94,53.75,50.89,53.75
			c27.95,0,50.88-22.68,50.88-53.75c0-24.84-22.93-47.53-50.88-47.53C315.05,660.16,292.11,682.85,292.11,707.7z"/>
		<path class="st1" d="M513.82,737.08h0.47l37.75-116.33h37.26l35.36,116.33h0.48l33.92-116.33h48.73l-57.57,180.12h-47.78
			l-31.53-104.39h-0.47l-35.36,104.39h-47.54l-53.75-180.12h48.73L513.82,737.08z"/>
		<path class="st1" d="M806.72,667.09c-8.61-7.17-19.6-11.94-31.06-11.94c-8.6,0-20.07,5.01-20.07,15.05
			c0,10.51,12.66,14.57,20.78,17.2l11.95,3.6c25.08,7.4,44.43,20.06,44.43,49.2c0,17.93-4.3,36.31-18.63,48.5
			c-14.1,11.95-32.97,16.97-51.12,16.97c-22.7,0-44.91-7.65-63.31-20.55l20.06-37.74c11.71,10.27,25.56,18.63,41.57,18.63
			c10.99,0,22.69-5.5,22.69-18.16c0-13.13-18.39-17.68-28.43-20.54c-29.38-8.37-48.73-16-48.73-50.89
			c0-36.54,26.04-60.43,62.11-60.43c18.16,0,40.38,5.73,56.38,14.82L806.72,667.09z"/>
		<path class="st1" d="M896.52,660.41v30.09h52.79v39.66h-52.79v31.06h55.66v39.66H849.7V620.75h102.49v39.66H896.52z"/>
		<path class="st1" d="M1126.29,800.87H1068l-44.19-69.27h-0.47v69.27h-46.82V620.75h69.99c35.59,0,62.58,16.97,62.58,55.42
			c0,24.84-13.84,46.35-39.41,50.88L1126.29,800.87z M1023.33,701.5h4.54c15.29,0,32.48-2.88,32.48-22.46
			c0-19.58-17.19-22.45-32.48-22.45h-4.54V701.5z"/>
		<path class="st1" d="M1197.53,730.16l43.71-109.41h50.88l-76.92,180.12h-36.31l-75.72-180.12h50.88L1197.53,730.16z"/>
		<path class="st1" d="M1346.14,660.41v30.09h52.78v39.66h-52.78v31.06h55.66v39.66h-102.49V620.75h102.49v39.66H1346.14z"/>
	</g>
	<path class="st1" d="M1329.68,852.87c0-8.21,6.18-14.36,14.12-14.36c7.83,0,14.06,6.15,14.06,14.36c0,8.32-6.23,14.46-14.06,14.46
		C1335.86,867.33,1329.68,861.19,1329.68,852.87z M1343.8,870.21c9.44,0,17.54-7.33,17.54-17.34c0-9.95-8.09-17.24-17.54-17.24
		c-9.54,0-17.6,7.29-17.6,17.24C1326.2,862.88,1334.26,870.21,1343.8,870.21z M1340.12,854.24h3.49l5.27,8.64h3.39l-5.67-8.77
		c2.94-0.37,5.18-1.93,5.18-5.52c0-3.94-2.33-5.68-7.07-5.68h-7.6v19.96h3.01V854.24z M1340.12,851.69v-6.22h4.13
		c2.11,0,4.36,0.47,4.36,2.94c0,3.09-2.3,3.28-4.86,3.28H1340.12z"/>
</g>
</svg>
